<mxfile host="app.diagrams.net" agent="Mozilla/5.0 (Windows NT 10.0; Win64; x64) AppleWebKit/537.36 (KHTML, like Gecko) Chrome/134.0.0.0 Safari/537.36" version="26.1.2">
  <diagram name="第 1 页" id="h3g5blcuJBroPWz_-Y7d">
    <mxGraphModel dx="938" dy="610" grid="1" gridSize="10" guides="1" tooltips="1" connect="1" arrows="1" fold="1" page="1" pageScale="1" pageWidth="827" pageHeight="1169" math="0" shadow="0">
      <root>
        <mxCell id="0" />
        <mxCell id="1" parent="0" />
        <mxCell id="8BT5oSIuf8goDv26raUH-17" value="单点登录集成服务" style="shape=table;startSize=30;container=1;collapsible=0;childLayout=tableLayout;strokeColor=default;fontSize=16;" vertex="1" parent="1">
          <mxGeometry x="150" y="70" width="490" height="660" as="geometry" />
        </mxCell>
        <mxCell id="8BT5oSIuf8goDv26raUH-18" value="" style="shape=tableRow;horizontal=0;startSize=0;swimlaneHead=0;swimlaneBody=0;strokeColor=inherit;top=0;left=0;bottom=0;right=0;collapsible=0;dropTarget=0;fillColor=none;points=[[0,0.5],[1,0.5]];portConstraint=eastwest;fontSize=16;" vertex="1" parent="8BT5oSIuf8goDv26raUH-17">
          <mxGeometry y="30" width="490" height="59" as="geometry" />
        </mxCell>
        <mxCell id="8BT5oSIuf8goDv26raUH-19" value="三方系统" style="shape=partialRectangle;html=1;whiteSpace=wrap;connectable=0;strokeColor=inherit;overflow=hidden;fillColor=none;top=0;left=0;bottom=0;right=0;pointerEvents=1;fontSize=16;" vertex="1" parent="8BT5oSIuf8goDv26raUH-18">
          <mxGeometry width="245" height="59" as="geometry">
            <mxRectangle width="245" height="59" as="alternateBounds" />
          </mxGeometry>
        </mxCell>
        <mxCell id="8BT5oSIuf8goDv26raUH-20" value="运维管理系统" style="shape=partialRectangle;html=1;whiteSpace=wrap;connectable=0;strokeColor=inherit;overflow=hidden;fillColor=none;top=0;left=0;bottom=0;right=0;pointerEvents=1;fontSize=16;" vertex="1" parent="8BT5oSIuf8goDv26raUH-18">
          <mxGeometry x="245" width="245" height="59" as="geometry">
            <mxRectangle width="245" height="59" as="alternateBounds" />
          </mxGeometry>
        </mxCell>
        <mxCell id="8BT5oSIuf8goDv26raUH-22" value="" style="shape=tableRow;horizontal=0;startSize=0;swimlaneHead=0;swimlaneBody=0;strokeColor=inherit;top=0;left=0;bottom=0;right=0;collapsible=0;dropTarget=0;fillColor=none;points=[[0,0.5],[1,0.5]];portConstraint=eastwest;fontSize=16;" vertex="1" parent="8BT5oSIuf8goDv26raUH-17">
          <mxGeometry y="89" width="490" height="286" as="geometry" />
        </mxCell>
        <mxCell id="8BT5oSIuf8goDv26raUH-23" value="" style="shape=partialRectangle;html=1;whiteSpace=wrap;connectable=0;strokeColor=inherit;overflow=hidden;fillColor=none;top=0;left=0;bottom=0;right=0;pointerEvents=1;fontSize=16;" vertex="1" parent="8BT5oSIuf8goDv26raUH-22">
          <mxGeometry width="245" height="286" as="geometry">
            <mxRectangle width="245" height="286" as="alternateBounds" />
          </mxGeometry>
        </mxCell>
        <mxCell id="8BT5oSIuf8goDv26raUH-24" value="" style="shape=partialRectangle;html=1;whiteSpace=wrap;connectable=0;strokeColor=inherit;overflow=hidden;fillColor=none;top=0;left=0;bottom=0;right=0;pointerEvents=1;fontSize=16;" vertex="1" parent="8BT5oSIuf8goDv26raUH-22">
          <mxGeometry x="245" width="245" height="286" as="geometry">
            <mxRectangle width="245" height="286" as="alternateBounds" />
          </mxGeometry>
        </mxCell>
        <mxCell id="8BT5oSIuf8goDv26raUH-26" value="" style="shape=tableRow;horizontal=0;startSize=0;swimlaneHead=0;swimlaneBody=0;strokeColor=inherit;top=0;left=0;bottom=0;right=0;collapsible=0;dropTarget=0;fillColor=none;points=[[0,0.5],[1,0.5]];portConstraint=eastwest;fontSize=16;" vertex="1" parent="8BT5oSIuf8goDv26raUH-17">
          <mxGeometry y="375" width="490" height="285" as="geometry" />
        </mxCell>
        <mxCell id="8BT5oSIuf8goDv26raUH-27" value="" style="shape=partialRectangle;html=1;whiteSpace=wrap;connectable=0;strokeColor=inherit;overflow=hidden;fillColor=none;top=0;left=0;bottom=0;right=0;pointerEvents=1;fontSize=16;" vertex="1" parent="8BT5oSIuf8goDv26raUH-26">
          <mxGeometry width="245" height="285" as="geometry">
            <mxRectangle width="245" height="285" as="alternateBounds" />
          </mxGeometry>
        </mxCell>
        <mxCell id="8BT5oSIuf8goDv26raUH-28" value="" style="shape=partialRectangle;html=1;whiteSpace=wrap;connectable=0;strokeColor=inherit;overflow=hidden;fillColor=none;top=0;left=0;bottom=0;right=0;pointerEvents=1;fontSize=16;" vertex="1" parent="8BT5oSIuf8goDv26raUH-26">
          <mxGeometry x="245" width="245" height="285" as="geometry">
            <mxRectangle width="245" height="285" as="alternateBounds" />
          </mxGeometry>
        </mxCell>
      </root>
    </mxGraphModel>
  </diagram>
</mxfile>
